<mxfile host="app.diagrams.net" agent="Mozilla/5.0 (X11; Linux x86_64; rv:140.0) Gecko/20100101 Firefox/140.0" version="27.1.1">
  <diagram name="Page-1" id="ascb8INPzrIwiWZnI2fV">
    <mxGraphModel dx="988" dy="688" grid="1" gridSize="10" guides="1" tooltips="1" connect="1" arrows="1" fold="1" page="1" pageScale="1" pageWidth="850" pageHeight="1100" math="0" shadow="0">
      <root>
        <mxCell id="0" />
        <mxCell id="1" parent="0" />
        <mxCell id="yyGMG78d06QC0XKIVCcU-1" value="" style="shape=table;startSize=0;container=1;collapsible=0;childLayout=tableLayout;fontStyle=0" parent="1" vertex="1">
          <mxGeometry x="520" y="110" width="700" height="630" as="geometry" />
        </mxCell>
        <mxCell id="yyGMG78d06QC0XKIVCcU-2" value="" style="shape=tableRow;horizontal=0;startSize=0;swimlaneHead=0;swimlaneBody=0;strokeColor=inherit;top=0;left=0;bottom=0;right=0;collapsible=0;dropTarget=0;fillColor=none;points=[[0,0.5],[1,0.5]];portConstraint=eastwest;" parent="yyGMG78d06QC0XKIVCcU-1" vertex="1">
          <mxGeometry width="700" height="40" as="geometry" />
        </mxCell>
        <mxCell id="yyGMG78d06QC0XKIVCcU-3" value="Use Case ID" style="shape=partialRectangle;html=1;whiteSpace=wrap;connectable=0;strokeColor=inherit;overflow=hidden;fillColor=none;top=0;left=0;bottom=0;right=0;pointerEvents=1;fontStyle=1" parent="yyGMG78d06QC0XKIVCcU-2" vertex="1">
          <mxGeometry width="120" height="40" as="geometry">
            <mxRectangle width="120" height="40" as="alternateBounds" />
          </mxGeometry>
        </mxCell>
        <mxCell id="yyGMG78d06QC0XKIVCcU-4" value="10" style="shape=partialRectangle;html=1;whiteSpace=wrap;connectable=0;strokeColor=inherit;overflow=hidden;fillColor=none;top=0;left=0;bottom=0;right=0;pointerEvents=1;" parent="yyGMG78d06QC0XKIVCcU-2" vertex="1">
          <mxGeometry x="120" width="54" height="40" as="geometry">
            <mxRectangle width="54" height="40" as="alternateBounds" />
          </mxGeometry>
        </mxCell>
        <mxCell id="yyGMG78d06QC0XKIVCcU-5" value="Use Case name" style="shape=partialRectangle;html=1;whiteSpace=wrap;connectable=0;strokeColor=inherit;overflow=hidden;fillColor=none;top=0;left=0;bottom=0;right=0;pointerEvents=1;fontStyle=1" parent="yyGMG78d06QC0XKIVCcU-2" vertex="1">
          <mxGeometry x="174" width="110" height="40" as="geometry">
            <mxRectangle width="110" height="40" as="alternateBounds" />
          </mxGeometry>
        </mxCell>
        <mxCell id="yyGMG78d06QC0XKIVCcU-6" value="Make Payment" style="shape=partialRectangle;html=1;whiteSpace=wrap;connectable=0;strokeColor=inherit;overflow=hidden;fillColor=none;top=0;left=0;bottom=0;right=0;pointerEvents=1;" parent="yyGMG78d06QC0XKIVCcU-2" vertex="1">
          <mxGeometry x="284" width="416" height="40" as="geometry">
            <mxRectangle width="416" height="40" as="alternateBounds" />
          </mxGeometry>
        </mxCell>
        <mxCell id="yyGMG78d06QC0XKIVCcU-12" style="shape=tableRow;horizontal=0;startSize=0;swimlaneHead=0;swimlaneBody=0;strokeColor=inherit;top=0;left=0;bottom=0;right=0;collapsible=0;dropTarget=0;fillColor=none;points=[[0,0.5],[1,0.5]];portConstraint=eastwest;" parent="yyGMG78d06QC0XKIVCcU-1" vertex="1">
          <mxGeometry y="40" width="700" height="50" as="geometry" />
        </mxCell>
        <mxCell id="yyGMG78d06QC0XKIVCcU-13" value="Description" style="shape=partialRectangle;html=1;whiteSpace=wrap;connectable=0;strokeColor=inherit;overflow=hidden;fillColor=none;top=0;left=0;bottom=0;right=0;pointerEvents=1;fontStyle=1" parent="yyGMG78d06QC0XKIVCcU-12" vertex="1">
          <mxGeometry width="120" height="50" as="geometry">
            <mxRectangle width="120" height="50" as="alternateBounds" />
          </mxGeometry>
        </mxCell>
        <mxCell id="yyGMG78d06QC0XKIVCcU-14" value="Handle all steps required to record payment for an order, delegating to the chosen payment method (Pay on Delivery or Pay via E-Banking) and updating the order status accordingly." style="shape=partialRectangle;html=1;whiteSpace=wrap;connectable=0;strokeColor=inherit;overflow=hidden;fillColor=none;top=0;left=0;bottom=0;right=0;pointerEvents=1;rowspan=1;colspan=3;" parent="yyGMG78d06QC0XKIVCcU-12" vertex="1">
          <mxGeometry x="120" width="580" height="50" as="geometry">
            <mxRectangle width="54" height="50" as="alternateBounds" />
          </mxGeometry>
        </mxCell>
        <mxCell id="yyGMG78d06QC0XKIVCcU-15" style="shape=partialRectangle;html=1;whiteSpace=wrap;connectable=0;strokeColor=inherit;overflow=hidden;fillColor=none;top=0;left=0;bottom=0;right=0;pointerEvents=1;fontStyle=1" parent="yyGMG78d06QC0XKIVCcU-12" vertex="1" visible="0">
          <mxGeometry x="174" width="110" height="50" as="geometry">
            <mxRectangle width="110" height="50" as="alternateBounds" />
          </mxGeometry>
        </mxCell>
        <mxCell id="yyGMG78d06QC0XKIVCcU-16" style="shape=partialRectangle;html=1;whiteSpace=wrap;connectable=0;strokeColor=inherit;overflow=hidden;fillColor=none;top=0;left=0;bottom=0;right=0;pointerEvents=1;" parent="yyGMG78d06QC0XKIVCcU-12" vertex="1" visible="0">
          <mxGeometry x="284" width="416" height="50" as="geometry">
            <mxRectangle width="416" height="50" as="alternateBounds" />
          </mxGeometry>
        </mxCell>
        <mxCell id="yyGMG78d06QC0XKIVCcU-17" value="" style="shape=tableRow;horizontal=0;startSize=0;swimlaneHead=0;swimlaneBody=0;strokeColor=inherit;top=0;left=0;bottom=0;right=0;collapsible=0;dropTarget=0;fillColor=none;points=[[0,0.5],[1,0.5]];portConstraint=eastwest;" parent="yyGMG78d06QC0XKIVCcU-1" vertex="1">
          <mxGeometry y="90" width="700" height="40" as="geometry" />
        </mxCell>
        <mxCell id="yyGMG78d06QC0XKIVCcU-18" value="Actor" style="shape=partialRectangle;html=1;whiteSpace=wrap;connectable=0;strokeColor=inherit;overflow=hidden;fillColor=none;top=0;left=0;bottom=0;right=0;pointerEvents=1;fontStyle=1" parent="yyGMG78d06QC0XKIVCcU-17" vertex="1">
          <mxGeometry width="120" height="40" as="geometry">
            <mxRectangle width="120" height="40" as="alternateBounds" />
          </mxGeometry>
        </mxCell>
        <mxCell id="yyGMG78d06QC0XKIVCcU-19" value="Customer" style="shape=partialRectangle;html=1;whiteSpace=wrap;connectable=0;strokeColor=inherit;overflow=hidden;fillColor=none;top=0;left=0;bottom=0;right=0;pointerEvents=1;rowspan=1;colspan=3;" parent="yyGMG78d06QC0XKIVCcU-17" vertex="1">
          <mxGeometry x="120" width="580" height="40" as="geometry">
            <mxRectangle width="54" height="40" as="alternateBounds" />
          </mxGeometry>
        </mxCell>
        <mxCell id="yyGMG78d06QC0XKIVCcU-20" value="" style="shape=partialRectangle;html=1;whiteSpace=wrap;connectable=0;strokeColor=inherit;overflow=hidden;fillColor=none;top=0;left=0;bottom=0;right=0;pointerEvents=1;" parent="yyGMG78d06QC0XKIVCcU-17" vertex="1" visible="0">
          <mxGeometry x="174" width="110" height="40" as="geometry">
            <mxRectangle width="110" height="40" as="alternateBounds" />
          </mxGeometry>
        </mxCell>
        <mxCell id="yyGMG78d06QC0XKIVCcU-21" value="" style="shape=partialRectangle;html=1;whiteSpace=wrap;connectable=0;strokeColor=inherit;overflow=hidden;fillColor=none;top=0;left=0;bottom=0;right=0;pointerEvents=1;" parent="yyGMG78d06QC0XKIVCcU-17" vertex="1" visible="0">
          <mxGeometry x="284" width="416" height="40" as="geometry">
            <mxRectangle width="416" height="40" as="alternateBounds" />
          </mxGeometry>
        </mxCell>
        <mxCell id="yyGMG78d06QC0XKIVCcU-22" style="shape=tableRow;horizontal=0;startSize=0;swimlaneHead=0;swimlaneBody=0;strokeColor=inherit;top=0;left=0;bottom=0;right=0;collapsible=0;dropTarget=0;fillColor=none;points=[[0,0.5],[1,0.5]];portConstraint=eastwest;" parent="yyGMG78d06QC0XKIVCcU-1" vertex="1">
          <mxGeometry y="130" width="700" height="40" as="geometry" />
        </mxCell>
        <mxCell id="yyGMG78d06QC0XKIVCcU-23" value="Trigger" style="shape=partialRectangle;html=1;whiteSpace=wrap;connectable=0;strokeColor=inherit;overflow=hidden;fillColor=none;top=0;left=0;bottom=0;right=0;pointerEvents=1;fontStyle=1" parent="yyGMG78d06QC0XKIVCcU-22" vertex="1">
          <mxGeometry width="120" height="40" as="geometry">
            <mxRectangle width="120" height="40" as="alternateBounds" />
          </mxGeometry>
        </mxCell>
        <mxCell id="yyGMG78d06QC0XKIVCcU-24" value="This use case is invoked after Customer check his/her order&#39;s information" style="shape=partialRectangle;html=1;whiteSpace=wrap;connectable=0;strokeColor=inherit;overflow=hidden;fillColor=none;top=0;left=0;bottom=0;right=0;pointerEvents=1;rowspan=1;colspan=3;" parent="yyGMG78d06QC0XKIVCcU-22" vertex="1">
          <mxGeometry x="120" width="580" height="40" as="geometry">
            <mxRectangle width="54" height="40" as="alternateBounds" />
          </mxGeometry>
        </mxCell>
        <mxCell id="yyGMG78d06QC0XKIVCcU-25" style="shape=partialRectangle;html=1;whiteSpace=wrap;connectable=0;strokeColor=inherit;overflow=hidden;fillColor=none;top=0;left=0;bottom=0;right=0;pointerEvents=1;" parent="yyGMG78d06QC0XKIVCcU-22" vertex="1" visible="0">
          <mxGeometry x="174" width="110" height="40" as="geometry">
            <mxRectangle width="110" height="40" as="alternateBounds" />
          </mxGeometry>
        </mxCell>
        <mxCell id="yyGMG78d06QC0XKIVCcU-26" style="shape=partialRectangle;html=1;whiteSpace=wrap;connectable=0;strokeColor=inherit;overflow=hidden;fillColor=none;top=0;left=0;bottom=0;right=0;pointerEvents=1;" parent="yyGMG78d06QC0XKIVCcU-22" vertex="1" visible="0">
          <mxGeometry x="284" width="416" height="40" as="geometry">
            <mxRectangle width="416" height="40" as="alternateBounds" />
          </mxGeometry>
        </mxCell>
        <mxCell id="yyGMG78d06QC0XKIVCcU-27" value="" style="shape=tableRow;horizontal=0;startSize=0;swimlaneHead=0;swimlaneBody=0;strokeColor=inherit;top=0;left=0;bottom=0;right=0;collapsible=0;dropTarget=0;fillColor=none;points=[[0,0.5],[1,0.5]];portConstraint=eastwest;" parent="yyGMG78d06QC0XKIVCcU-1" vertex="1">
          <mxGeometry y="170" width="700" height="40" as="geometry" />
        </mxCell>
        <mxCell id="yyGMG78d06QC0XKIVCcU-28" value="&lt;b&gt;Pre-Condition&lt;/b&gt;" style="shape=partialRectangle;html=1;whiteSpace=wrap;connectable=0;strokeColor=inherit;overflow=hidden;fillColor=none;top=0;left=0;bottom=0;right=0;pointerEvents=1;" parent="yyGMG78d06QC0XKIVCcU-27" vertex="1">
          <mxGeometry width="120" height="40" as="geometry">
            <mxRectangle width="120" height="40" as="alternateBounds" />
          </mxGeometry>
        </mxCell>
        <mxCell id="yyGMG78d06QC0XKIVCcU-29" value="&lt;div align=&quot;left&quot;&gt;&lt;ul&gt;&lt;li&gt;Customer checked the order&#39;s information&lt;/li&gt;&lt;/ul&gt;&lt;/div&gt;" style="shape=partialRectangle;html=1;whiteSpace=wrap;connectable=0;strokeColor=inherit;overflow=hidden;fillColor=none;top=0;left=0;bottom=0;right=0;pointerEvents=1;rowspan=1;colspan=3;align=left;" parent="yyGMG78d06QC0XKIVCcU-27" vertex="1">
          <mxGeometry x="120" width="580" height="40" as="geometry">
            <mxRectangle width="54" height="40" as="alternateBounds" />
          </mxGeometry>
        </mxCell>
        <mxCell id="yyGMG78d06QC0XKIVCcU-30" value="" style="shape=partialRectangle;html=1;whiteSpace=wrap;connectable=0;strokeColor=inherit;overflow=hidden;fillColor=none;top=0;left=0;bottom=0;right=0;pointerEvents=1;" parent="yyGMG78d06QC0XKIVCcU-27" vertex="1" visible="0">
          <mxGeometry x="174" width="110" height="40" as="geometry">
            <mxRectangle width="110" height="40" as="alternateBounds" />
          </mxGeometry>
        </mxCell>
        <mxCell id="yyGMG78d06QC0XKIVCcU-31" value="" style="shape=partialRectangle;html=1;whiteSpace=wrap;connectable=0;strokeColor=inherit;overflow=hidden;fillColor=none;top=0;left=0;bottom=0;right=0;pointerEvents=1;" parent="yyGMG78d06QC0XKIVCcU-27" vertex="1" visible="0">
          <mxGeometry x="284" width="416" height="40" as="geometry">
            <mxRectangle width="416" height="40" as="alternateBounds" />
          </mxGeometry>
        </mxCell>
        <mxCell id="yyGMG78d06QC0XKIVCcU-32" style="shape=tableRow;horizontal=0;startSize=0;swimlaneHead=0;swimlaneBody=0;strokeColor=inherit;top=0;left=0;bottom=0;right=0;collapsible=0;dropTarget=0;fillColor=none;points=[[0,0.5],[1,0.5]];portConstraint=eastwest;" parent="yyGMG78d06QC0XKIVCcU-1" vertex="1">
          <mxGeometry y="210" width="700" height="40" as="geometry" />
        </mxCell>
        <mxCell id="yyGMG78d06QC0XKIVCcU-33" value="&lt;b&gt;Post-Condition&lt;/b&gt;" style="shape=partialRectangle;html=1;whiteSpace=wrap;connectable=0;strokeColor=inherit;overflow=hidden;fillColor=none;top=0;left=0;bottom=0;right=0;pointerEvents=1;" parent="yyGMG78d06QC0XKIVCcU-32" vertex="1">
          <mxGeometry width="120" height="40" as="geometry">
            <mxRectangle width="120" height="40" as="alternateBounds" />
          </mxGeometry>
        </mxCell>
        <mxCell id="yyGMG78d06QC0XKIVCcU-34" value="&lt;div align=&quot;left&quot;&gt;&lt;ul&gt;&lt;li&gt;The payment method is selected and done by customer&lt;/li&gt;&lt;/ul&gt;&lt;/div&gt;" style="shape=partialRectangle;html=1;whiteSpace=wrap;connectable=0;strokeColor=inherit;overflow=hidden;fillColor=none;top=0;left=0;bottom=0;right=0;pointerEvents=1;rowspan=1;colspan=3;align=left;" parent="yyGMG78d06QC0XKIVCcU-32" vertex="1">
          <mxGeometry x="120" width="580" height="40" as="geometry">
            <mxRectangle width="54" height="40" as="alternateBounds" />
          </mxGeometry>
        </mxCell>
        <mxCell id="yyGMG78d06QC0XKIVCcU-35" style="shape=partialRectangle;html=1;whiteSpace=wrap;connectable=0;strokeColor=inherit;overflow=hidden;fillColor=none;top=0;left=0;bottom=0;right=0;pointerEvents=1;" parent="yyGMG78d06QC0XKIVCcU-32" vertex="1" visible="0">
          <mxGeometry x="174" width="110" height="40" as="geometry">
            <mxRectangle width="110" height="40" as="alternateBounds" />
          </mxGeometry>
        </mxCell>
        <mxCell id="yyGMG78d06QC0XKIVCcU-36" style="shape=partialRectangle;html=1;whiteSpace=wrap;connectable=0;strokeColor=inherit;overflow=hidden;fillColor=none;top=0;left=0;bottom=0;right=0;pointerEvents=1;" parent="yyGMG78d06QC0XKIVCcU-32" vertex="1" visible="0">
          <mxGeometry x="284" width="416" height="40" as="geometry">
            <mxRectangle width="416" height="40" as="alternateBounds" />
          </mxGeometry>
        </mxCell>
        <mxCell id="yyGMG78d06QC0XKIVCcU-37" value="" style="shape=tableRow;horizontal=0;startSize=0;swimlaneHead=0;swimlaneBody=0;strokeColor=inherit;top=0;left=0;bottom=0;right=0;collapsible=0;dropTarget=0;fillColor=none;points=[[0,0.5],[1,0.5]];portConstraint=eastwest;" parent="yyGMG78d06QC0XKIVCcU-1" vertex="1">
          <mxGeometry y="250" width="700" height="40" as="geometry" />
        </mxCell>
        <mxCell id="yyGMG78d06QC0XKIVCcU-38" value="&lt;b&gt;Basic Flow&lt;/b&gt;" style="shape=partialRectangle;html=1;whiteSpace=wrap;connectable=0;strokeColor=inherit;overflow=hidden;fillColor=none;top=0;left=0;bottom=0;right=0;pointerEvents=1;rowspan=6;colspan=1;" parent="yyGMG78d06QC0XKIVCcU-37" vertex="1">
          <mxGeometry width="120" height="240" as="geometry">
            <mxRectangle width="120" height="40" as="alternateBounds" />
          </mxGeometry>
        </mxCell>
        <mxCell id="yyGMG78d06QC0XKIVCcU-39" value="Step" style="shape=partialRectangle;html=1;whiteSpace=wrap;connectable=0;strokeColor=inherit;overflow=hidden;fillColor=none;top=0;left=0;bottom=0;right=0;pointerEvents=1;" parent="yyGMG78d06QC0XKIVCcU-37" vertex="1">
          <mxGeometry x="120" width="54" height="40" as="geometry">
            <mxRectangle width="54" height="40" as="alternateBounds" />
          </mxGeometry>
        </mxCell>
        <mxCell id="yyGMG78d06QC0XKIVCcU-40" value="Performed by" style="shape=partialRectangle;html=1;whiteSpace=wrap;connectable=0;strokeColor=inherit;overflow=hidden;fillColor=none;top=0;left=0;bottom=0;right=0;pointerEvents=1;" parent="yyGMG78d06QC0XKIVCcU-37" vertex="1">
          <mxGeometry x="174" width="110" height="40" as="geometry">
            <mxRectangle width="110" height="40" as="alternateBounds" />
          </mxGeometry>
        </mxCell>
        <mxCell id="yyGMG78d06QC0XKIVCcU-41" value="Action" style="shape=partialRectangle;html=1;whiteSpace=wrap;connectable=0;strokeColor=inherit;overflow=hidden;fillColor=none;top=0;left=0;bottom=0;right=0;pointerEvents=1;" parent="yyGMG78d06QC0XKIVCcU-37" vertex="1">
          <mxGeometry x="284" width="416" height="40" as="geometry">
            <mxRectangle width="416" height="40" as="alternateBounds" />
          </mxGeometry>
        </mxCell>
        <mxCell id="yyGMG78d06QC0XKIVCcU-42" value="" style="shape=tableRow;horizontal=0;startSize=0;swimlaneHead=0;swimlaneBody=0;strokeColor=inherit;top=0;left=0;bottom=0;right=0;collapsible=0;dropTarget=0;fillColor=none;points=[[0,0.5],[1,0.5]];portConstraint=eastwest;" parent="yyGMG78d06QC0XKIVCcU-1" vertex="1">
          <mxGeometry y="290" width="700" height="40" as="geometry" />
        </mxCell>
        <mxCell id="yyGMG78d06QC0XKIVCcU-43" value="" style="shape=partialRectangle;html=1;whiteSpace=wrap;connectable=0;strokeColor=inherit;overflow=hidden;fillColor=none;top=0;left=0;bottom=0;right=0;pointerEvents=1;" parent="yyGMG78d06QC0XKIVCcU-42" vertex="1" visible="0">
          <mxGeometry width="120" height="40" as="geometry">
            <mxRectangle width="120" height="40" as="alternateBounds" />
          </mxGeometry>
        </mxCell>
        <mxCell id="yyGMG78d06QC0XKIVCcU-44" value="1" style="shape=partialRectangle;html=1;whiteSpace=wrap;connectable=0;strokeColor=inherit;overflow=hidden;fillColor=none;top=0;left=0;bottom=0;right=0;pointerEvents=1;" parent="yyGMG78d06QC0XKIVCcU-42" vertex="1">
          <mxGeometry x="120" width="54" height="40" as="geometry">
            <mxRectangle width="54" height="40" as="alternateBounds" />
          </mxGeometry>
        </mxCell>
        <mxCell id="yyGMG78d06QC0XKIVCcU-45" value="System" style="shape=partialRectangle;html=1;whiteSpace=wrap;connectable=0;strokeColor=inherit;overflow=hidden;fillColor=none;top=0;left=0;bottom=0;right=0;pointerEvents=1;" parent="yyGMG78d06QC0XKIVCcU-42" vertex="1">
          <mxGeometry x="174" width="110" height="40" as="geometry">
            <mxRectangle width="110" height="40" as="alternateBounds" />
          </mxGeometry>
        </mxCell>
        <mxCell id="yyGMG78d06QC0XKIVCcU-46" value="Shows payment options" style="shape=partialRectangle;html=1;whiteSpace=wrap;connectable=0;strokeColor=inherit;overflow=hidden;fillColor=none;top=0;left=0;bottom=0;right=0;pointerEvents=1;fontStyle=0" parent="yyGMG78d06QC0XKIVCcU-42" vertex="1">
          <mxGeometry x="284" width="416" height="40" as="geometry">
            <mxRectangle width="416" height="40" as="alternateBounds" />
          </mxGeometry>
        </mxCell>
        <mxCell id="yyGMG78d06QC0XKIVCcU-47" value="" style="shape=tableRow;horizontal=0;startSize=0;swimlaneHead=0;swimlaneBody=0;strokeColor=inherit;top=0;left=0;bottom=0;right=0;collapsible=0;dropTarget=0;fillColor=none;points=[[0,0.5],[1,0.5]];portConstraint=eastwest;" parent="yyGMG78d06QC0XKIVCcU-1" vertex="1">
          <mxGeometry y="330" width="700" height="40" as="geometry" />
        </mxCell>
        <mxCell id="yyGMG78d06QC0XKIVCcU-48" value="" style="shape=partialRectangle;html=1;whiteSpace=wrap;connectable=0;strokeColor=inherit;overflow=hidden;fillColor=none;top=0;left=0;bottom=0;right=0;pointerEvents=1;" parent="yyGMG78d06QC0XKIVCcU-47" vertex="1" visible="0">
          <mxGeometry width="120" height="40" as="geometry">
            <mxRectangle width="120" height="40" as="alternateBounds" />
          </mxGeometry>
        </mxCell>
        <mxCell id="yyGMG78d06QC0XKIVCcU-49" value="2" style="shape=partialRectangle;html=1;whiteSpace=wrap;connectable=0;strokeColor=inherit;overflow=hidden;fillColor=none;top=0;left=0;bottom=0;right=0;pointerEvents=1;" parent="yyGMG78d06QC0XKIVCcU-47" vertex="1">
          <mxGeometry x="120" width="54" height="40" as="geometry">
            <mxRectangle width="54" height="40" as="alternateBounds" />
          </mxGeometry>
        </mxCell>
        <mxCell id="yyGMG78d06QC0XKIVCcU-50" value="Customer" style="shape=partialRectangle;html=1;whiteSpace=wrap;connectable=0;strokeColor=inherit;overflow=hidden;fillColor=none;top=0;left=0;bottom=0;right=0;pointerEvents=1;" parent="yyGMG78d06QC0XKIVCcU-47" vertex="1">
          <mxGeometry x="174" width="110" height="40" as="geometry">
            <mxRectangle width="110" height="40" as="alternateBounds" />
          </mxGeometry>
        </mxCell>
        <mxCell id="yyGMG78d06QC0XKIVCcU-51" value="Selects a method" style="shape=partialRectangle;html=1;whiteSpace=wrap;connectable=0;strokeColor=inherit;overflow=hidden;fillColor=none;top=0;left=0;bottom=0;right=0;pointerEvents=1;fontStyle=0" parent="yyGMG78d06QC0XKIVCcU-47" vertex="1">
          <mxGeometry x="284" width="416" height="40" as="geometry">
            <mxRectangle width="416" height="40" as="alternateBounds" />
          </mxGeometry>
        </mxCell>
        <mxCell id="yyGMG78d06QC0XKIVCcU-52" value="" style="shape=tableRow;horizontal=0;startSize=0;swimlaneHead=0;swimlaneBody=0;strokeColor=inherit;top=0;left=0;bottom=0;right=0;collapsible=0;dropTarget=0;fillColor=none;points=[[0,0.5],[1,0.5]];portConstraint=eastwest;" parent="yyGMG78d06QC0XKIVCcU-1" vertex="1">
          <mxGeometry y="370" width="700" height="40" as="geometry" />
        </mxCell>
        <mxCell id="yyGMG78d06QC0XKIVCcU-53" value="" style="shape=partialRectangle;html=1;whiteSpace=wrap;connectable=0;strokeColor=inherit;overflow=hidden;fillColor=none;top=0;left=0;bottom=0;right=0;pointerEvents=1;" parent="yyGMG78d06QC0XKIVCcU-52" vertex="1" visible="0">
          <mxGeometry width="120" height="40" as="geometry">
            <mxRectangle width="120" height="40" as="alternateBounds" />
          </mxGeometry>
        </mxCell>
        <mxCell id="yyGMG78d06QC0XKIVCcU-54" value="3" style="shape=partialRectangle;html=1;whiteSpace=wrap;connectable=0;strokeColor=inherit;overflow=hidden;fillColor=none;top=0;left=0;bottom=0;right=0;pointerEvents=1;" parent="yyGMG78d06QC0XKIVCcU-52" vertex="1">
          <mxGeometry x="120" width="54" height="40" as="geometry">
            <mxRectangle width="54" height="40" as="alternateBounds" />
          </mxGeometry>
        </mxCell>
        <mxCell id="yyGMG78d06QC0XKIVCcU-55" value="System" style="shape=partialRectangle;html=1;whiteSpace=wrap;connectable=0;strokeColor=inherit;overflow=hidden;fillColor=none;top=0;left=0;bottom=0;right=0;pointerEvents=1;" parent="yyGMG78d06QC0XKIVCcU-52" vertex="1">
          <mxGeometry x="174" width="110" height="40" as="geometry">
            <mxRectangle width="110" height="40" as="alternateBounds" />
          </mxGeometry>
        </mxCell>
        <mxCell id="yyGMG78d06QC0XKIVCcU-56" value="Calls the selected specialised use case " style="shape=partialRectangle;html=1;whiteSpace=wrap;connectable=0;strokeColor=inherit;overflow=hidden;fillColor=none;top=0;left=0;bottom=0;right=0;pointerEvents=1;" parent="yyGMG78d06QC0XKIVCcU-52" vertex="1">
          <mxGeometry x="284" width="416" height="40" as="geometry">
            <mxRectangle width="416" height="40" as="alternateBounds" />
          </mxGeometry>
        </mxCell>
        <mxCell id="yyGMG78d06QC0XKIVCcU-57" style="shape=tableRow;horizontal=0;startSize=0;swimlaneHead=0;swimlaneBody=0;strokeColor=inherit;top=0;left=0;bottom=0;right=0;collapsible=0;dropTarget=0;fillColor=none;points=[[0,0.5],[1,0.5]];portConstraint=eastwest;" parent="yyGMG78d06QC0XKIVCcU-1" vertex="1">
          <mxGeometry y="410" width="700" height="40" as="geometry" />
        </mxCell>
        <mxCell id="yyGMG78d06QC0XKIVCcU-58" style="shape=partialRectangle;html=1;whiteSpace=wrap;connectable=0;strokeColor=inherit;overflow=hidden;fillColor=none;top=0;left=0;bottom=0;right=0;pointerEvents=1;" parent="yyGMG78d06QC0XKIVCcU-57" visible="0" vertex="1">
          <mxGeometry width="120" height="40" as="geometry">
            <mxRectangle width="120" height="40" as="alternateBounds" />
          </mxGeometry>
        </mxCell>
        <mxCell id="yyGMG78d06QC0XKIVCcU-59" value="4" style="shape=partialRectangle;html=1;whiteSpace=wrap;connectable=0;strokeColor=inherit;overflow=hidden;fillColor=none;top=0;left=0;bottom=0;right=0;pointerEvents=1;" parent="yyGMG78d06QC0XKIVCcU-57" vertex="1">
          <mxGeometry x="120" width="54" height="40" as="geometry">
            <mxRectangle width="54" height="40" as="alternateBounds" />
          </mxGeometry>
        </mxCell>
        <mxCell id="yyGMG78d06QC0XKIVCcU-60" value="Specialised flow" style="shape=partialRectangle;html=1;whiteSpace=wrap;connectable=0;strokeColor=inherit;overflow=hidden;fillColor=none;top=0;left=0;bottom=0;right=0;pointerEvents=1;" parent="yyGMG78d06QC0XKIVCcU-57" vertex="1">
          <mxGeometry x="174" width="110" height="40" as="geometry">
            <mxRectangle width="110" height="40" as="alternateBounds" />
          </mxGeometry>
        </mxCell>
        <mxCell id="yyGMG78d06QC0XKIVCcU-61" value="Returns result" style="shape=partialRectangle;html=1;whiteSpace=wrap;connectable=0;strokeColor=inherit;overflow=hidden;fillColor=none;top=0;left=0;bottom=0;right=0;pointerEvents=1;" parent="yyGMG78d06QC0XKIVCcU-57" vertex="1">
          <mxGeometry x="284" width="416" height="40" as="geometry">
            <mxRectangle width="416" height="40" as="alternateBounds" />
          </mxGeometry>
        </mxCell>
        <mxCell id="yyGMG78d06QC0XKIVCcU-62" style="shape=tableRow;horizontal=0;startSize=0;swimlaneHead=0;swimlaneBody=0;strokeColor=inherit;top=0;left=0;bottom=0;right=0;collapsible=0;dropTarget=0;fillColor=none;points=[[0,0.5],[1,0.5]];portConstraint=eastwest;" parent="yyGMG78d06QC0XKIVCcU-1" vertex="1">
          <mxGeometry y="450" width="700" height="40" as="geometry" />
        </mxCell>
        <mxCell id="yyGMG78d06QC0XKIVCcU-63" style="shape=partialRectangle;html=1;whiteSpace=wrap;connectable=0;strokeColor=inherit;overflow=hidden;fillColor=none;top=0;left=0;bottom=0;right=0;pointerEvents=1;" parent="yyGMG78d06QC0XKIVCcU-62" visible="0" vertex="1">
          <mxGeometry width="120" height="40" as="geometry">
            <mxRectangle width="120" height="40" as="alternateBounds" />
          </mxGeometry>
        </mxCell>
        <mxCell id="yyGMG78d06QC0XKIVCcU-64" value="5" style="shape=partialRectangle;html=1;whiteSpace=wrap;connectable=0;strokeColor=inherit;overflow=hidden;fillColor=none;top=0;left=0;bottom=0;right=0;pointerEvents=1;" parent="yyGMG78d06QC0XKIVCcU-62" vertex="1">
          <mxGeometry x="120" width="54" height="40" as="geometry">
            <mxRectangle width="54" height="40" as="alternateBounds" />
          </mxGeometry>
        </mxCell>
        <mxCell id="yyGMG78d06QC0XKIVCcU-65" value="System" style="shape=partialRectangle;html=1;whiteSpace=wrap;connectable=0;strokeColor=inherit;overflow=hidden;fillColor=none;top=0;left=0;bottom=0;right=0;pointerEvents=1;" parent="yyGMG78d06QC0XKIVCcU-62" vertex="1">
          <mxGeometry x="174" width="110" height="40" as="geometry">
            <mxRectangle width="110" height="40" as="alternateBounds" />
          </mxGeometry>
        </mxCell>
        <mxCell id="yyGMG78d06QC0XKIVCcU-66" value="Show confirmation" style="shape=partialRectangle;html=1;whiteSpace=wrap;connectable=0;strokeColor=inherit;overflow=hidden;fillColor=none;top=0;left=0;bottom=0;right=0;pointerEvents=1;" parent="yyGMG78d06QC0XKIVCcU-62" vertex="1">
          <mxGeometry x="284" width="416" height="40" as="geometry">
            <mxRectangle width="416" height="40" as="alternateBounds" />
          </mxGeometry>
        </mxCell>
        <mxCell id="yyGMG78d06QC0XKIVCcU-87" style="shape=tableRow;horizontal=0;startSize=0;swimlaneHead=0;swimlaneBody=0;strokeColor=inherit;top=0;left=0;bottom=0;right=0;collapsible=0;dropTarget=0;fillColor=none;points=[[0,0.5],[1,0.5]];portConstraint=eastwest;" parent="yyGMG78d06QC0XKIVCcU-1" vertex="1">
          <mxGeometry y="490" width="700" height="40" as="geometry" />
        </mxCell>
        <mxCell id="yyGMG78d06QC0XKIVCcU-88" value="&lt;b&gt;Exception Flow&lt;/b&gt;" style="shape=partialRectangle;html=1;whiteSpace=wrap;connectable=0;strokeColor=inherit;overflow=hidden;fillColor=none;top=0;left=0;bottom=0;right=0;pointerEvents=1;rowspan=3;colspan=1;" parent="yyGMG78d06QC0XKIVCcU-87" vertex="1">
          <mxGeometry width="120" height="140" as="geometry">
            <mxRectangle width="120" height="40" as="alternateBounds" />
          </mxGeometry>
        </mxCell>
        <mxCell id="yyGMG78d06QC0XKIVCcU-89" value="2a" style="shape=partialRectangle;html=1;whiteSpace=wrap;connectable=0;strokeColor=inherit;overflow=hidden;fillColor=none;top=0;left=0;bottom=0;right=0;pointerEvents=1;" parent="yyGMG78d06QC0XKIVCcU-87" vertex="1">
          <mxGeometry x="120" width="54" height="40" as="geometry">
            <mxRectangle width="54" height="40" as="alternateBounds" />
          </mxGeometry>
        </mxCell>
        <mxCell id="yyGMG78d06QC0XKIVCcU-90" value="Customer" style="shape=partialRectangle;html=1;whiteSpace=wrap;connectable=0;strokeColor=inherit;overflow=hidden;fillColor=none;top=0;left=0;bottom=0;right=0;pointerEvents=1;" parent="yyGMG78d06QC0XKIVCcU-87" vertex="1">
          <mxGeometry x="174" width="110" height="40" as="geometry">
            <mxRectangle width="110" height="40" as="alternateBounds" />
          </mxGeometry>
        </mxCell>
        <mxCell id="yyGMG78d06QC0XKIVCcU-91" value="Aborts payment" style="shape=partialRectangle;html=1;whiteSpace=wrap;connectable=0;strokeColor=inherit;overflow=hidden;fillColor=none;top=0;left=0;bottom=0;right=0;pointerEvents=1;" parent="yyGMG78d06QC0XKIVCcU-87" vertex="1">
          <mxGeometry x="284" width="416" height="40" as="geometry">
            <mxRectangle width="416" height="40" as="alternateBounds" />
          </mxGeometry>
        </mxCell>
        <mxCell id="fmI9lJsgymr4F2DUh1G3-1" style="shape=tableRow;horizontal=0;startSize=0;swimlaneHead=0;swimlaneBody=0;strokeColor=inherit;top=0;left=0;bottom=0;right=0;collapsible=0;dropTarget=0;fillColor=none;points=[[0,0.5],[1,0.5]];portConstraint=eastwest;" parent="yyGMG78d06QC0XKIVCcU-1" vertex="1">
          <mxGeometry y="530" width="700" height="50" as="geometry" />
        </mxCell>
        <mxCell id="fmI9lJsgymr4F2DUh1G3-2" style="shape=partialRectangle;html=1;whiteSpace=wrap;connectable=0;strokeColor=inherit;overflow=hidden;fillColor=none;top=0;left=0;bottom=0;right=0;pointerEvents=1;" parent="fmI9lJsgymr4F2DUh1G3-1" vertex="1" visible="0">
          <mxGeometry width="120" height="50" as="geometry">
            <mxRectangle width="120" height="50" as="alternateBounds" />
          </mxGeometry>
        </mxCell>
        <mxCell id="fmI9lJsgymr4F2DUh1G3-3" value="&lt;div&gt;2a1&lt;/div&gt;" style="shape=partialRectangle;html=1;whiteSpace=wrap;connectable=0;strokeColor=inherit;overflow=hidden;fillColor=none;top=0;left=0;bottom=0;right=0;pointerEvents=1;" parent="fmI9lJsgymr4F2DUh1G3-1" vertex="1">
          <mxGeometry x="120" width="54" height="50" as="geometry">
            <mxRectangle width="54" height="50" as="alternateBounds" />
          </mxGeometry>
        </mxCell>
        <mxCell id="fmI9lJsgymr4F2DUh1G3-4" value="System" style="shape=partialRectangle;html=1;whiteSpace=wrap;connectable=0;strokeColor=inherit;overflow=hidden;fillColor=none;top=0;left=0;bottom=0;right=0;pointerEvents=1;" parent="fmI9lJsgymr4F2DUh1G3-1" vertex="1">
          <mxGeometry x="174" width="110" height="50" as="geometry">
            <mxRectangle width="110" height="50" as="alternateBounds" />
          </mxGeometry>
        </mxCell>
        <mxCell id="fmI9lJsgymr4F2DUh1G3-5" value="&lt;div&gt;Show &lt;b&gt;&lt;i&gt;Payment Cancel&lt;/i&gt;&lt;/b&gt; notification&lt;/div&gt;&lt;div&gt;&lt;i&gt;Use case ends here&lt;/i&gt;&lt;/div&gt;" style="shape=partialRectangle;html=1;whiteSpace=wrap;connectable=0;strokeColor=inherit;overflow=hidden;fillColor=none;top=0;left=0;bottom=0;right=0;pointerEvents=1;" parent="fmI9lJsgymr4F2DUh1G3-1" vertex="1">
          <mxGeometry x="284" width="416" height="50" as="geometry">
            <mxRectangle width="416" height="50" as="alternateBounds" />
          </mxGeometry>
        </mxCell>
        <mxCell id="yyGMG78d06QC0XKIVCcU-92" style="shape=tableRow;horizontal=0;startSize=0;swimlaneHead=0;swimlaneBody=0;strokeColor=inherit;top=0;left=0;bottom=0;right=0;collapsible=0;dropTarget=0;fillColor=none;points=[[0,0.5],[1,0.5]];portConstraint=eastwest;" parent="yyGMG78d06QC0XKIVCcU-1" vertex="1">
          <mxGeometry y="580" width="700" height="50" as="geometry" />
        </mxCell>
        <mxCell id="yyGMG78d06QC0XKIVCcU-93" style="shape=partialRectangle;html=1;whiteSpace=wrap;connectable=0;strokeColor=inherit;overflow=hidden;fillColor=none;top=0;left=0;bottom=0;right=0;pointerEvents=1;" parent="yyGMG78d06QC0XKIVCcU-92" visible="0" vertex="1">
          <mxGeometry width="120" height="50" as="geometry">
            <mxRectangle width="120" height="50" as="alternateBounds" />
          </mxGeometry>
        </mxCell>
        <mxCell id="yyGMG78d06QC0XKIVCcU-94" value="5a" style="shape=partialRectangle;html=1;whiteSpace=wrap;connectable=0;strokeColor=inherit;overflow=hidden;fillColor=none;top=0;left=0;bottom=0;right=0;pointerEvents=1;" parent="yyGMG78d06QC0XKIVCcU-92" vertex="1">
          <mxGeometry x="120" width="54" height="50" as="geometry">
            <mxRectangle width="54" height="50" as="alternateBounds" />
          </mxGeometry>
        </mxCell>
        <mxCell id="yyGMG78d06QC0XKIVCcU-95" value="System" style="shape=partialRectangle;html=1;whiteSpace=wrap;connectable=0;strokeColor=inherit;overflow=hidden;fillColor=none;top=0;left=0;bottom=0;right=0;pointerEvents=1;" parent="yyGMG78d06QC0XKIVCcU-92" vertex="1">
          <mxGeometry x="174" width="110" height="50" as="geometry">
            <mxRectangle width="110" height="50" as="alternateBounds" />
          </mxGeometry>
        </mxCell>
        <mxCell id="yyGMG78d06QC0XKIVCcU-96" value="Error occurs during step 4, show &lt;b&gt;&lt;i&gt;Payment Failed&lt;/i&gt;&lt;/b&gt;&amp;nbsp;notification" style="shape=partialRectangle;html=1;whiteSpace=wrap;connectable=0;strokeColor=inherit;overflow=hidden;fillColor=none;top=0;left=0;bottom=0;right=0;pointerEvents=1;" parent="yyGMG78d06QC0XKIVCcU-92" vertex="1">
          <mxGeometry x="284" width="416" height="50" as="geometry">
            <mxRectangle width="416" height="50" as="alternateBounds" />
          </mxGeometry>
        </mxCell>
      </root>
    </mxGraphModel>
  </diagram>
</mxfile>
